<svg width="17" height="17" viewBox="0 0 17 17" fill="none" xmlns="http://www.w3.org/2000/svg">
<g clip-path="url(#clip0_346_13359)">
<path d="M14.8752 2.49399L12.8499 2.4976C11.934 1.29235 10.4988 0.501781 8.87163 0.504678C7.24445 0.507575 5.81211 1.30325 4.90051 2.51175L2.8752 2.51536C1.77239 2.51732 0.876801 3.4161 0.878764 4.51891L0.896568 14.5189C0.898531 15.6217 1.79731 16.5173 2.90013 16.5153L14.9001 16.494C16.0029 16.492 16.8985 15.5932 16.8965 14.4904L16.8787 4.49043C16.8768 3.38762 15.978 2.49203 14.8752 2.49399ZM8.87341 1.50468C11.0825 1.50074 12.8766 3.28849 12.8805 5.49755C12.8845 7.70661 11.0967 9.50073 8.88765 9.50466C6.67859 9.5086 4.88447 7.72085 4.88054 5.51179C4.87661 3.30273 6.66435 1.50861 8.87341 1.50468ZM15.8965 14.4922C15.8975 15.0444 15.4505 15.493 14.8983 15.494L2.89834 15.5153C2.34616 15.5163 1.89755 15.0693 1.89657 14.5171L1.87876 4.51713C1.87778 3.96495 2.32479 3.51634 2.87698 3.51536L4.30073 3.51282C4.03245 4.12674 3.87927 4.8017 3.88054 5.51357C3.88545 8.27044 6.13256 10.5096 8.88943 10.5047C11.6463 10.4998 13.8854 8.25264 13.8805 5.49577C13.8793 4.78389 13.7237 4.10948 13.4532 3.49653L14.877 3.49399C15.4291 3.49301 15.8778 3.94002 15.8787 4.49221L15.8965 14.4922ZM8.88587 8.50467C9.71306 8.50319 10.3847 7.82918 10.3832 7.002C10.3824 6.567 10.1927 6.17859 9.89562 5.90505L10.8367 3.69806C10.945 3.44443 10.827 3.15058 10.5727 3.04228C10.32 2.93398 10.0252 3.05169 9.91693 3.30626L8.97524 5.51419C7.86698 5.44397 7.38213 6.40265 7.3832 7.00734C7.38468 7.83452 8.05869 8.50614 8.88587 8.50467ZM8.88231 6.50467C9.15856 6.50418 9.38271 6.72753 9.3832 7.00378C9.38369 7.28003 9.16034 7.50418 8.88409 7.50467C8.60784 7.50516 8.3837 7.28181 8.3832 7.00556C8.38271 6.72931 8.60606 6.50516 8.88231 6.50467Z" fill="#212121"/>
</g>
<defs>
<clipPath id="clip0_346_13359">
<rect width="16" height="16" fill="white" transform="translate(0.871643 0.518921) rotate(-0.102006)"/>
</clipPath>
</defs>
</svg>
