<svg width="220" height="51" viewBox="0 0 220 51" fill="none" xmlns="http://www.w3.org/2000/svg">
<path d="M31.2938 25.4239C31.2485 28.711 28.5471 31.339 25.26 31.2938C21.9729 31.2485 19.3449 28.5471 19.3901 25.26C19.4354 21.9729 22.1368 19.3449 25.4239 19.3901C28.711 19.4354 31.339 22.1368 31.2938 25.4239Z" fill="#212121"/>
<path fill-rule="evenodd" clip-rule="evenodd" d="M24.9976 50.3396C37.591 50.513 48.1376 41.3442 50.0372 29.2539L35.3964 29.0522C33.8684 33.1929 29.859 36.1195 25.1944 36.0552C20.5298 35.991 16.6025 32.9551 15.1891 28.7739L0.548278 28.5722C2.11422 40.7103 12.4043 50.1661 24.9976 50.3396ZM15.2875 21.6317L0.646653 21.43C2.54631 9.33971 13.0929 0.170855 25.6863 0.344314C38.2796 0.517773 48.5697 9.97363 50.1356 22.1117L35.4948 21.91C34.0814 17.7288 30.1541 14.6929 25.4895 14.6287C20.8249 14.5644 16.8155 17.4909 15.2875 21.6317ZM31.2938 25.4239C31.2485 28.711 28.5471 31.339 25.26 31.2938C21.9729 31.2485 19.3449 28.5471 19.3901 25.26C19.4354 21.9729 22.1368 19.3449 25.4239 19.3901C28.711 19.4354 31.339 22.1368 31.2938 25.4239Z" fill="#212121"/>
<path d="M88.39 21.9C88.39 23.18 88.09 24.35 87.49 25.41C86.91 26.45 86.02 27.29 84.82 27.93C83.64 28.55 82.19 28.86 80.47 28.86H77.56V36H71.68V14.85H80.47C82.17 14.85 83.61 15.15 84.79 15.75C85.99 16.35 86.89 17.18 87.49 18.24C88.09 19.3 88.39 20.52 88.39 21.9ZM79.9 24.18C81.56 24.18 82.39 23.42 82.39 21.9C82.39 20.36 81.56 19.59 79.9 19.59H77.56V24.18H79.9ZM98.5823 36.21C96.9023 36.21 95.3923 35.86 94.0523 35.16C92.7323 34.46 91.6923 33.46 90.9323 32.16C90.1723 30.86 89.7923 29.33 89.7923 27.57C89.7923 25.83 90.1723 24.31 90.9323 23.01C91.7123 21.71 92.7623 20.71 94.0823 20.01C95.4223 19.31 96.9323 18.96 98.6123 18.96C100.292 18.96 101.792 19.31 103.112 20.01C104.452 20.71 105.502 21.71 106.262 23.01C107.042 24.31 107.432 25.83 107.432 27.57C107.432 29.31 107.042 30.84 106.262 32.16C105.502 33.46 104.452 34.46 103.112 35.16C101.772 35.86 100.262 36.21 98.5823 36.21ZM98.5823 31.11C99.4023 31.11 100.082 30.81 100.622 30.21C101.182 29.59 101.462 28.71 101.462 27.57C101.462 26.43 101.182 25.56 100.622 24.96C100.082 24.36 99.4123 24.06 98.6123 24.06C97.8123 24.06 97.1423 24.36 96.6023 24.96C96.0623 25.56 95.7923 26.43 95.7923 27.57C95.7923 28.73 96.0523 29.61 96.5723 30.21C97.0923 30.81 97.7623 31.11 98.5823 31.11ZM120.355 36L115.705 29.1V36H109.825V13.8H115.705V25.77L120.355 19.17H127.405L120.775 27.63L127.525 36H120.355ZM145.328 27.39C145.328 27.85 145.298 28.31 145.238 28.77H134.108C134.168 29.69 134.418 30.38 134.858 30.84C135.318 31.28 135.898 31.5 136.598 31.5C137.578 31.5 138.278 31.06 138.698 30.18H144.968C144.708 31.34 144.198 32.38 143.438 33.3C142.698 34.2 141.758 34.91 140.618 35.43C139.478 35.95 138.218 36.21 136.838 36.21C135.178 36.21 133.698 35.86 132.398 35.16C131.118 34.46 130.108 33.46 129.368 32.16C128.648 30.86 128.288 29.33 128.288 27.57C128.288 25.81 128.648 24.29 129.368 23.01C130.088 21.71 131.088 20.71 132.368 20.01C133.668 19.31 135.158 18.96 136.838 18.96C138.498 18.96 139.968 19.3 141.248 19.98C142.528 20.66 143.528 21.64 144.248 22.92C144.968 24.18 145.328 25.67 145.328 27.39ZM139.328 25.92C139.328 25.2 139.088 24.64 138.608 24.24C138.128 23.82 137.528 23.61 136.808 23.61C136.088 23.61 135.498 23.81 135.038 24.21C134.578 24.59 134.278 25.16 134.138 25.92H139.328ZM166.857 32.55H159.357L158.217 36H152.037L159.747 14.85H166.527L174.207 36H167.997L166.857 32.55ZM165.387 28.05L163.107 21.21L160.857 28.05H165.387ZM182.003 21.51C182.463 20.73 183.113 20.11 183.953 19.65C184.793 19.19 185.783 18.96 186.923 18.96C188.263 18.96 189.473 19.31 190.553 20.01C191.653 20.71 192.513 21.71 193.133 23.01C193.773 24.31 194.093 25.83 194.093 27.57C194.093 29.31 193.773 30.84 193.133 32.16C192.513 33.46 191.653 34.46 190.553 35.16C189.473 35.86 188.263 36.21 186.923 36.21C185.783 36.21 184.793 35.98 183.953 35.52C183.133 35.06 182.483 34.44 182.003 33.66V44.04H176.123V19.17H182.003V21.51ZM188.123 27.57C188.123 26.47 187.823 25.62 187.223 25.02C186.643 24.4 185.923 24.09 185.063 24.09C184.203 24.09 183.473 24.4 182.873 25.02C182.293 25.64 182.003 26.49 182.003 27.57C182.003 28.67 182.293 29.53 182.873 30.15C183.473 30.77 184.203 31.08 185.063 31.08C185.923 31.08 186.643 30.77 187.223 30.15C187.823 29.51 188.123 28.65 188.123 27.57ZM202.394 21.51C202.854 20.73 203.504 20.11 204.344 19.65C205.184 19.19 206.174 18.96 207.314 18.96C208.654 18.96 209.864 19.31 210.944 20.01C212.044 20.71 212.904 21.71 213.524 23.01C214.164 24.31 214.484 25.83 214.484 27.57C214.484 29.31 214.164 30.84 213.524 32.16C212.904 33.46 212.044 34.46 210.944 35.16C209.864 35.86 208.654 36.21 207.314 36.21C206.174 36.21 205.184 35.98 204.344 35.52C203.524 35.06 202.874 34.44 202.394 33.66V44.04H196.514V19.17H202.394V21.51ZM208.514 27.57C208.514 26.47 208.214 25.62 207.614 25.02C207.034 24.4 206.314 24.09 205.454 24.09C204.594 24.09 203.864 24.4 203.264 25.02C202.684 25.64 202.394 26.49 202.394 27.57C202.394 28.67 202.684 29.53 203.264 30.15C203.864 30.77 204.594 31.08 205.454 31.08C206.314 31.08 207.034 30.77 207.614 30.15C208.214 29.51 208.514 28.65 208.514 27.57Z" fill="black"/>
</svg>
