<svg width="9" height="17" viewBox="0 0 9 17" fill="none" xmlns="http://www.w3.org/2000/svg">
<g clip-path="url(#clip0_346_13366)">
<path d="M7.87145 0.323109L1.87146 0.333791C1.31927 0.334774 0.872257 0.783383 0.87324 1.33557L0.898165 15.3355C0.899148 15.8877 1.34776 16.3347 1.89994 16.3338L7.89993 16.3231C8.45212 16.3221 8.89914 15.8735 8.89815 15.3213L8.87323 1.32133C8.87224 0.76914 8.42364 0.322126 7.87145 0.323109ZM1.89816 15.3338L1.87324 1.33379L7.87323 1.32311L7.87679 3.3231L6.12679 3.32622C5.98867 3.32647 5.87699 3.43854 5.87724 3.57666L5.87813 4.07666C5.87837 4.21479 5.99045 4.32646 6.12857 4.32622L7.87857 4.3231L7.88213 6.3231L6.13213 6.32621C5.99401 6.32646 5.88233 6.43853 5.88258 6.57666L5.88347 7.07666C5.88372 7.21478 5.99579 7.32646 6.13391 7.32621L7.88391 7.3231L7.88747 9.32309L6.13747 9.32621C5.99935 9.32646 5.88767 9.43853 5.88792 9.57665L5.88881 10.0767C5.88906 10.2148 6.00113 10.3265 6.13925 10.3262L7.88925 10.3231L7.89281 12.3231L6.14282 12.3262C6.00469 12.3265 5.89302 12.4385 5.89326 12.5766L5.89415 13.0766C5.8944 13.2148 6.00647 13.3264 6.1446 13.3262L7.89459 13.3231L7.89815 15.3231L1.89816 15.3338Z" fill="#212121"/>
</g>
<defs>
<clipPath id="clip0_346_13366">
<rect width="8" height="16" fill="white" transform="translate(0.87146 0.335571) rotate(-0.102006)"/>
</clipPath>
</defs>
</svg>
